<mxfile host="app.diagrams.net" modified="2021-08-18T08:25:57.057Z" agent="5.0 (X11)" etag="0J1ymLXCZPnoBdhSLiEY" version="14.9.4" type="github">
  <diagram id="o6FBnnh21fnTWob_zk2f" name="Page-1">
    <mxGraphModel dx="1350" dy="764" grid="1" gridSize="10" guides="1" tooltips="1" connect="1" arrows="1" fold="1" page="1" pageScale="1" pageWidth="1169" pageHeight="827" math="0" shadow="0">
      <root>
        <mxCell id="0" />
        <mxCell id="1" parent="0" />
        <mxCell id="WA45sJLJeDe34Si-K1UF-3" value="Схема библиотеки DeviceCAN" style="text;html=1;strokeColor=none;fillColor=none;align=center;verticalAlign=middle;whiteSpace=wrap;rounded=0;fontStyle=1;fontSize=20;" parent="1" vertex="1">
          <mxGeometry x="280" y="20" width="570" height="20" as="geometry" />
        </mxCell>
        <mxCell id="WA45sJLJeDe34Si-K1UF-5" value="JSON" style="shape=flexArrow;endArrow=classic;html=1;fontSize=20;" parent="1" edge="1">
          <mxGeometry width="50" height="50" relative="1" as="geometry">
            <mxPoint x="410" y="300" as="sourcePoint" />
            <mxPoint x="450" y="240" as="targetPoint" />
            <Array as="points" />
          </mxGeometry>
        </mxCell>
        <mxCell id="WA45sJLJeDe34Si-K1UF-11" value="&lt;div style=&quot;font-size: 10px&quot; align=&quot;left&quot;&gt;&lt;pre&gt;&lt;font style=&quot;font-size: 10px&quot;&gt;[&lt;br&gt;&lt;/font&gt;&lt;font style=&quot;font-size: 10px&quot;&gt;&lt;span class=&quot;pl-s&quot;&gt;&lt;span class=&quot;pl-pds&quot;&gt;  &quot;&lt;/span&gt;PCIe 0&lt;span class=&quot;pl-pds&quot;&gt;&quot;&lt;/span&gt;&lt;/span&gt;,&lt;/font&gt;&lt;font style=&quot;font-size: 10px&quot;&gt;&lt;br&gt;&lt;font style=&quot;font-size: 10px&quot;&gt;  &lt;span class=&quot;pl-s&quot;&gt;&lt;span class=&quot;pl-pds&quot;&gt;&quot;&lt;/span&gt;PCIe 1&lt;span class=&quot;pl-pds&quot;&gt;&quot;&lt;/span&gt;&lt;/span&gt;&lt;br&gt;]&lt;/font&gt;&lt;/font&gt;&lt;/pre&gt;&lt;/div&gt;" style="text;html=1;strokeColor=#9673a6;fillColor=#e1d5e7;align=left;verticalAlign=middle;whiteSpace=wrap;rounded=0;fontSize=20;" parent="1" vertex="1">
          <mxGeometry x="300" y="160" width="90" height="60" as="geometry" />
        </mxCell>
        <mxCell id="WA45sJLJeDe34Si-K1UF-14" value="&lt;font style=&quot;font-size: 14px&quot;&gt;о каналах&lt;/font&gt;" style="text;html=1;strokeColor=none;fillColor=none;align=center;verticalAlign=middle;whiteSpace=wrap;rounded=0;fontSize=14;" parent="1" vertex="1">
          <mxGeometry x="295" y="65" width="95" height="50" as="geometry" />
        </mxCell>
        <mxCell id="WA45sJLJeDe34Si-K1UF-16" value="&lt;pre style=&quot;font-size: 11px&quot;&gt;&lt;font style=&quot;font-size: 11px&quot;&gt;{&lt;br&gt;    &lt;span class=&quot;pl-s&quot;&gt;&lt;span class=&quot;pl-pds&quot;&gt;&quot;&lt;/span&gt;board&lt;span class=&quot;pl-pds&quot;&gt;&quot;&lt;/span&gt;&lt;/span&gt;: &lt;span class=&quot;pl-s&quot;&gt;&lt;span class=&quot;pl-pds&quot;&gt;&quot;&lt;/span&gt;Power&lt;span class=&quot;pl-pds&quot;&gt;&quot;&lt;/span&gt;&lt;/span&gt;,&lt;br&gt;    &lt;span class=&quot;pl-s&quot;&gt;&lt;span class=&quot;pl-pds&quot;&gt;&quot;&lt;/span&gt;status&lt;span class=&quot;pl-pds&quot;&gt;&quot;&lt;/span&gt;&lt;/span&gt;: {&lt;br&gt;        &lt;span class=&quot;pl-s&quot;&gt;&lt;span class=&quot;pl-pds&quot;&gt;&quot;&lt;/span&gt;axilightenb&lt;span class=&quot;pl-pds&quot;&gt;&quot;&lt;/span&gt;&lt;/span&gt;: &lt;span class=&quot;pl-c1&quot;&gt;true&lt;/span&gt;,&lt;br&gt;        &lt;span class=&quot;pl-s&quot;&gt;&lt;span class=&quot;pl-pds&quot;&gt;&quot;&lt;/span&gt;on&lt;span class=&quot;pl-pds&quot;&gt;&quot;&lt;/span&gt;&lt;/span&gt;: &lt;span class=&quot;pl-c1&quot;&gt;true&lt;/span&gt;,&lt;br&gt;&lt;span class=&quot;pl-c1&quot;&gt;&lt;/span&gt;&lt;span style=&quot;white-space: pre&quot;&gt; &lt;/span&gt;...&lt;br&gt;    }&lt;br&gt;}&lt;/font&gt;&lt;/pre&gt;" style="text;html=1;strokeColor=#9673a6;fillColor=#e1d5e7;align=left;verticalAlign=middle;whiteSpace=wrap;rounded=0;fontSize=20;" parent="1" vertex="1">
          <mxGeometry x="430" y="115" width="190" height="110" as="geometry" />
        </mxCell>
        <mxCell id="WA45sJLJeDe34Si-K1UF-17" value="Сообщения от плат:&lt;br&gt;status, settings, params" style="text;html=1;strokeColor=none;fillColor=none;align=center;verticalAlign=middle;whiteSpace=wrap;rounded=0;fontSize=14;" parent="1" vertex="1">
          <mxGeometry x="423.75" y="60" width="186.25" height="50" as="geometry" />
        </mxCell>
        <mxCell id="WA45sJLJeDe34Si-K1UF-18" value="&lt;div style=&quot;font-size: 10px&quot; align=&quot;left&quot;&gt;&lt;pre&gt;&lt;font style=&quot;font-size: 10px&quot;&gt;{&lt;br&gt;    &lt;span class=&quot;pl-s&quot;&gt;&lt;span class=&quot;pl-pds&quot;&gt;&quot;&lt;/span&gt;name&lt;span class=&quot;pl-pds&quot;&gt;&quot;&lt;/span&gt;&lt;/span&gt; : &lt;span class=&quot;pl-s&quot;&gt;&lt;span class=&quot;pl-pds&quot;&gt;&quot;&lt;/span&gt;UnableToOpen&lt;span class=&quot;pl-pds&quot;&gt;&quot;&lt;/span&gt;&lt;/span&gt;,&lt;br&gt;    &lt;span class=&quot;pl-s&quot;&gt;&lt;span class=&quot;pl-pds&quot;&gt;&quot;&lt;/span&gt;message&lt;span class=&quot;pl-pds&quot;&gt;&quot;&lt;/span&gt;&lt;/span&gt; : &lt;span class=&quot;pl-s&quot;&gt;&lt;span class=&quot;pl-pds&quot;&gt;&quot;&lt;/span&gt;Marathon invalid parameter&lt;span class=&quot;pl-pds&quot;&gt;&quot;&lt;/span&gt;&lt;/span&gt;    &lt;br&gt;}&lt;/font&gt;&lt;/pre&gt;&lt;/div&gt;" style="text;html=1;strokeColor=#9673a6;fillColor=#e1d5e7;align=left;verticalAlign=middle;whiteSpace=wrap;rounded=0;fontSize=20;" parent="1" vertex="1">
          <mxGeometry x="10" y="130" width="270" height="60" as="geometry" />
        </mxCell>
        <mxCell id="WA45sJLJeDe34Si-K1UF-19" value="об ошибках" style="text;html=1;strokeColor=none;fillColor=none;align=center;verticalAlign=middle;whiteSpace=wrap;rounded=0;fontSize=14;" parent="1" vertex="1">
          <mxGeometry x="110" y="80" width="95" height="50" as="geometry" />
        </mxCell>
        <mxCell id="WA45sJLJeDe34Si-K1UF-20" value="JSON" style="shape=flexArrow;endArrow=classic;html=1;fontSize=20;" parent="1" edge="1">
          <mxGeometry width="50" height="50" relative="1" as="geometry">
            <mxPoint x="840" y="250" as="sourcePoint" />
            <mxPoint x="840" y="320" as="targetPoint" />
            <Array as="points" />
          </mxGeometry>
        </mxCell>
        <mxCell id="WA45sJLJeDe34Si-K1UF-21" value="&lt;pre style=&quot;font-size: 10px&quot;&gt;&lt;font style=&quot;font-size: 10px&quot;&gt;{&lt;br&gt;    &lt;span class=&quot;pl-s&quot;&gt;&lt;span class=&quot;pl-pds&quot;&gt;&quot;&lt;/span&gt;board&lt;span class=&quot;pl-pds&quot;&gt;&quot;&lt;/span&gt;&lt;/span&gt; : &lt;span class=&quot;pl-s&quot;&gt;&lt;span class=&quot;pl-pds&quot;&gt;&quot;&lt;/span&gt;Power&lt;span class=&quot;pl-pds&quot;&gt;&quot;&lt;/span&gt;&lt;/span&gt;,&lt;br&gt;    &lt;span class=&quot;pl-s&quot;&gt;&lt;span class=&quot;pl-pds&quot;&gt;&quot;&lt;/span&gt;command&lt;span class=&quot;pl-pds&quot;&gt;&quot;&lt;/span&gt;&lt;/span&gt; : {&lt;br&gt;        &lt;span class=&quot;pl-s&quot;&gt;&lt;span class=&quot;pl-pds&quot;&gt;&quot;&lt;/span&gt;extlighton&lt;span class=&quot;pl-pds&quot;&gt;&quot;&lt;/span&gt;&lt;/span&gt; : &lt;span class=&quot;pl-c1&quot;&gt;false&lt;/span&gt;&lt;br&gt;        }&lt;br&gt;}&lt;/font&gt;&lt;/pre&gt;" style="text;html=1;strokeColor=#9673a6;fillColor=#e1d5e7;align=left;verticalAlign=middle;whiteSpace=wrap;rounded=0;fontSize=20;" parent="1" vertex="1">
          <mxGeometry x="750" y="160" width="180" height="80" as="geometry" />
        </mxCell>
        <mxCell id="WA45sJLJeDe34Si-K1UF-22" value="Сообщения для плат:&lt;br&gt;status, settings, command, params" style="text;html=1;strokeColor=none;fillColor=none;align=center;verticalAlign=middle;whiteSpace=wrap;rounded=0;fontSize=14;" parent="1" vertex="1">
          <mxGeometry x="736.87" y="90" width="186.25" height="50" as="geometry" />
        </mxCell>
        <mxCell id="WA45sJLJeDe34Si-K1UF-48" value="&lt;b&gt;&lt;br&gt;&lt;/b&gt;" style="rounded=0;whiteSpace=wrap;html=1;fontSize=14;fillColor=#dae8fc;strokeColor=#6c8ebf;strokeWidth=3;" parent="1" vertex="1">
          <mxGeometry x="35" y="320" width="1100" height="319" as="geometry" />
        </mxCell>
        <mxCell id="NdoguJuQsjqrLEw7FO3E-3" value="&lt;b&gt;DeviceCAN.dll (Qt/C++)&lt;/b&gt;" style="text;html=1;strokeColor=none;fillColor=none;align=center;verticalAlign=middle;whiteSpace=wrap;rounded=0;" vertex="1" parent="1">
          <mxGeometry x="50" y="377" width="90" height="36" as="geometry" />
        </mxCell>
        <mxCell id="NdoguJuQsjqrLEw7FO3E-50" style="edgeStyle=orthogonalEdgeStyle;rounded=0;orthogonalLoop=1;jettySize=auto;html=1;entryX=1;entryY=0.5;entryDx=0;entryDy=0;startArrow=none;startFill=0;endArrow=classic;endFill=1;exitX=0.5;exitY=1;exitDx=0;exitDy=0;fillColor=#0050ef;strokeColor=#001DBC;" edge="1" parent="1" source="WA45sJLJeDe34Si-K1UF-27" target="NdoguJuQsjqrLEw7FO3E-17">
          <mxGeometry relative="1" as="geometry" />
        </mxCell>
        <mxCell id="NdoguJuQsjqrLEw7FO3E-51" style="edgeStyle=orthogonalEdgeStyle;rounded=0;orthogonalLoop=1;jettySize=auto;html=1;entryX=1;entryY=0;entryDx=0;entryDy=0;startArrow=none;startFill=0;endArrow=classic;endFill=1;fillColor=#0050ef;strokeColor=#001DBC;" edge="1" parent="1" source="WA45sJLJeDe34Si-K1UF-27" target="NdoguJuQsjqrLEw7FO3E-16">
          <mxGeometry relative="1" as="geometry" />
        </mxCell>
        <mxCell id="WA45sJLJeDe34Si-K1UF-27" value="&lt;span style=&quot;font-weight: 600 ; color: #00677c&quot;&gt;getChannels&lt;/span&gt;&lt;span style=&quot;font-weight: 600 ; color: #00677c&quot;&gt;&lt;br&gt;openChannel&lt;br&gt;&lt;/span&gt;&lt;span style=&quot;font-weight: 600 ; color: #00677c&quot;&gt;changeChannel&lt;/span&gt;" style="text;html=1;strokeColor=#10739e;fillColor=#b1ddf0;align=center;verticalAlign=middle;whiteSpace=wrap;rounded=0;fontSize=14;" parent="1" vertex="1">
          <mxGeometry x="950" y="550" width="130" height="50" as="geometry" />
        </mxCell>
        <mxCell id="NdoguJuQsjqrLEw7FO3E-22" value="&lt;span style=&quot;color: #800080&quot;&gt;Frame&lt;/span&gt;s" style="edgeStyle=orthogonalEdgeStyle;rounded=0;orthogonalLoop=1;jettySize=auto;html=1;exitX=0.5;exitY=1;exitDx=0;exitDy=0;" edge="1" parent="1" source="NdoguJuQsjqrLEw7FO3E-4" target="NdoguJuQsjqrLEw7FO3E-21">
          <mxGeometry relative="1" as="geometry" />
        </mxCell>
        <mxCell id="NdoguJuQsjqrLEw7FO3E-4" value="&lt;span style=&quot;font-weight: 600 ; color: #00677c&quot;&gt;toCAN&lt;/span&gt;" style="rounded=0;whiteSpace=wrap;html=1;" vertex="1" parent="1">
          <mxGeometry x="790" y="320" width="120" height="80" as="geometry" />
        </mxCell>
        <mxCell id="NdoguJuQsjqrLEw7FO3E-5" value="Qt: SocketCAN" style="rounded=0;whiteSpace=wrap;html=1;" vertex="1" parent="1">
          <mxGeometry x="420" y="641.5" width="160" height="21" as="geometry" />
        </mxCell>
        <mxCell id="NdoguJuQsjqrLEw7FO3E-15" value="windows" style="edgeStyle=orthogonalEdgeStyle;rounded=0;orthogonalLoop=1;jettySize=auto;html=1;entryX=0.75;entryY=0;entryDx=0;entryDy=0;" edge="1" parent="1" source="NdoguJuQsjqrLEw7FO3E-6" target="NdoguJuQsjqrLEw7FO3E-8">
          <mxGeometry relative="1" as="geometry" />
        </mxCell>
        <mxCell id="NdoguJuQsjqrLEw7FO3E-19" value="windows" style="edgeStyle=orthogonalEdgeStyle;rounded=0;orthogonalLoop=1;jettySize=auto;html=1;" edge="1" parent="1" source="NdoguJuQsjqrLEw7FO3E-6" target="NdoguJuQsjqrLEw7FO3E-18">
          <mxGeometry relative="1" as="geometry" />
        </mxCell>
        <mxCell id="NdoguJuQsjqrLEw7FO3E-6" value="Marathon: chai 2.11" style="rounded=0;whiteSpace=wrap;html=1;" vertex="1" parent="1">
          <mxGeometry x="616.87" y="642" width="153.13" height="20" as="geometry" />
        </mxCell>
        <mxCell id="NdoguJuQsjqrLEw7FO3E-11" value="linux" style="edgeStyle=orthogonalEdgeStyle;rounded=0;orthogonalLoop=1;jettySize=auto;html=1;entryX=0;entryY=0.5;entryDx=0;entryDy=0;exitX=0.75;exitY=1;exitDx=0;exitDy=0;" edge="1" parent="1" source="NdoguJuQsjqrLEw7FO3E-7" target="NdoguJuQsjqrLEw7FO3E-8">
          <mxGeometry relative="1" as="geometry">
            <mxPoint x="540" y="690" as="sourcePoint" />
          </mxGeometry>
        </mxCell>
        <mxCell id="NdoguJuQsjqrLEw7FO3E-7" value="Linux kernel: SocketCAN" style="rounded=0;whiteSpace=wrap;html=1;" vertex="1" parent="1">
          <mxGeometry x="420" y="662.5" width="160" height="21" as="geometry" />
        </mxCell>
        <mxCell id="NdoguJuQsjqrLEw7FO3E-8" value="Marathon PCI" style="rounded=0;whiteSpace=wrap;html=1;" vertex="1" parent="1">
          <mxGeometry x="732.5" y="730" width="150" height="21" as="geometry" />
        </mxCell>
        <mxCell id="NdoguJuQsjqrLEw7FO3E-9" value="&lt;div&gt;плата подсветки&lt;/div&gt;" style="rounded=1;whiteSpace=wrap;html=1;" vertex="1" parent="1">
          <mxGeometry x="350" y="790" width="120" height="30" as="geometry" />
        </mxCell>
        <mxCell id="NdoguJuQsjqrLEw7FO3E-10" value="" style="shape=curlyBracket;whiteSpace=wrap;html=1;rounded=1;flipH=1;fontSize=20;rotation=90;" vertex="1" parent="1">
          <mxGeometry x="577.5" y="222.5" width="20" height="1055" as="geometry" />
        </mxCell>
        <mxCell id="NdoguJuQsjqrLEw7FO3E-12" value="твердотельный лазер" style="rounded=1;whiteSpace=wrap;html=1;" vertex="1" parent="1">
          <mxGeometry x="480" y="790" width="150" height="30" as="geometry" />
        </mxCell>
        <mxCell id="NdoguJuQsjqrLEw7FO3E-13" value="&lt;div&gt;плата ...&lt;br&gt;&lt;/div&gt;" style="rounded=1;whiteSpace=wrap;html=1;" vertex="1" parent="1">
          <mxGeometry x="650" y="790" width="160" height="30" as="geometry" />
        </mxCell>
        <mxCell id="NdoguJuQsjqrLEw7FO3E-48" style="edgeStyle=orthogonalEdgeStyle;rounded=0;orthogonalLoop=1;jettySize=auto;html=1;entryX=0.25;entryY=1;entryDx=0;entryDy=0;startArrow=none;startFill=0;endArrow=classic;endFill=1;exitX=0;exitY=0.25;exitDx=0;exitDy=0;fillColor=#fad7ac;strokeColor=#b46504;" edge="1" parent="1" source="NdoguJuQsjqrLEw7FO3E-16" target="NdoguJuQsjqrLEw7FO3E-41">
          <mxGeometry relative="1" as="geometry" />
        </mxCell>
        <mxCell id="NdoguJuQsjqrLEw7FO3E-58" style="edgeStyle=orthogonalEdgeStyle;rounded=0;orthogonalLoop=1;jettySize=auto;html=1;entryX=0.25;entryY=1;entryDx=0;entryDy=0;startArrow=none;startFill=0;endArrow=classic;endFill=1;fillColor=#0050ef;strokeColor=#001DBC;" edge="1" parent="1" source="NdoguJuQsjqrLEw7FO3E-16" target="NdoguJuQsjqrLEw7FO3E-55">
          <mxGeometry relative="1" as="geometry" />
        </mxCell>
        <mxCell id="NdoguJuQsjqrLEw7FO3E-16" value="&lt;span style=&quot;font-weight: 600 ; color: #800080&quot;&gt;SocketCAN&lt;/span&gt;" style="rounded=0;whiteSpace=wrap;html=1;" vertex="1" parent="1">
          <mxGeometry x="420" y="610" width="160" height="31.5" as="geometry" />
        </mxCell>
        <mxCell id="NdoguJuQsjqrLEw7FO3E-42" style="edgeStyle=orthogonalEdgeStyle;rounded=0;orthogonalLoop=1;jettySize=auto;html=1;entryX=0.75;entryY=1;entryDx=0;entryDy=0;startArrow=none;startFill=0;exitX=0.5;exitY=0;exitDx=0;exitDy=0;fillColor=#fad7ac;strokeColor=#b46504;" edge="1" parent="1" source="NdoguJuQsjqrLEw7FO3E-17" target="NdoguJuQsjqrLEw7FO3E-41">
          <mxGeometry relative="1" as="geometry" />
        </mxCell>
        <mxCell id="NdoguJuQsjqrLEw7FO3E-59" style="edgeStyle=orthogonalEdgeStyle;rounded=0;orthogonalLoop=1;jettySize=auto;html=1;entryX=0.5;entryY=1;entryDx=0;entryDy=0;startArrow=none;startFill=0;endArrow=classic;endFill=1;exitX=0.25;exitY=0;exitDx=0;exitDy=0;fillColor=#0050ef;strokeColor=#001DBC;" edge="1" parent="1" source="NdoguJuQsjqrLEw7FO3E-17" target="NdoguJuQsjqrLEw7FO3E-55">
          <mxGeometry relative="1" as="geometry">
            <Array as="points">
              <mxPoint x="655" y="600" />
              <mxPoint x="248" y="600" />
            </Array>
          </mxGeometry>
        </mxCell>
        <mxCell id="NdoguJuQsjqrLEw7FO3E-17" value="&lt;span style=&quot;font-weight: 600 ; color: #800080&quot;&gt;MarathonCAN&lt;/span&gt;" style="rounded=0;whiteSpace=wrap;html=1;" vertex="1" parent="1">
          <mxGeometry x="616.87" y="610" width="153.13" height="32" as="geometry" />
        </mxCell>
        <mxCell id="NdoguJuQsjqrLEw7FO3E-18" value="Marathon USB" style="rounded=0;whiteSpace=wrap;html=1;" vertex="1" parent="1">
          <mxGeometry x="930" y="730" width="150" height="21" as="geometry" />
        </mxCell>
        <mxCell id="NdoguJuQsjqrLEw7FO3E-27" style="edgeStyle=orthogonalEdgeStyle;rounded=0;orthogonalLoop=1;jettySize=auto;html=1;entryX=0.75;entryY=0;entryDx=0;entryDy=0;fillColor=#d80073;strokeColor=#A50040;" edge="1" parent="1" source="NdoguJuQsjqrLEw7FO3E-21" target="NdoguJuQsjqrLEw7FO3E-16">
          <mxGeometry relative="1" as="geometry">
            <mxPoint x="550" y="600" as="targetPoint" />
          </mxGeometry>
        </mxCell>
        <mxCell id="NdoguJuQsjqrLEw7FO3E-28" style="edgeStyle=orthogonalEdgeStyle;rounded=0;orthogonalLoop=1;jettySize=auto;html=1;entryX=0.75;entryY=0;entryDx=0;entryDy=0;fillColor=#d80073;strokeColor=#A50040;" edge="1" parent="1" source="NdoguJuQsjqrLEw7FO3E-21" target="NdoguJuQsjqrLEw7FO3E-17">
          <mxGeometry relative="1" as="geometry">
            <mxPoint x="710" y="610" as="targetPoint" />
          </mxGeometry>
        </mxCell>
        <mxCell id="NdoguJuQsjqrLEw7FO3E-21" value="&lt;span style=&quot;font-weight: 600 ; color: #00677c&quot;&gt;writeToCAN&lt;/span&gt;" style="rounded=0;whiteSpace=wrap;html=1;" vertex="1" parent="1">
          <mxGeometry x="780" y="530" width="120" height="40" as="geometry" />
        </mxCell>
        <mxCell id="NdoguJuQsjqrLEw7FO3E-34" value="&lt;span style=&quot;font-weight: 600 ; color: #00677c&quot;&gt;newMSG&lt;/span&gt;" style="rounded=0;whiteSpace=wrap;html=1;" vertex="1" parent="1">
          <mxGeometry x="336.25" y="320" width="93.75" height="43" as="geometry" />
        </mxCell>
        <mxCell id="NdoguJuQsjqrLEw7FO3E-35" value="" style="rounded=0;whiteSpace=wrap;html=1;fillColor=#ffe6cc;strokeColor=#d79b00;" vertex="1" parent="1">
          <mxGeometry x="490" y="330" width="190" height="210" as="geometry" />
        </mxCell>
        <mxCell id="NdoguJuQsjqrLEw7FO3E-23" value="Board: Power" style="rounded=0;whiteSpace=wrap;html=1;fillColor=#f8cecc;strokeColor=#b85450;" vertex="1" parent="1">
          <mxGeometry x="540" y="347" width="120" height="30" as="geometry" />
        </mxCell>
        <mxCell id="NdoguJuQsjqrLEw7FO3E-24" value="Board: LaserT" style="rounded=0;whiteSpace=wrap;html=1;fillColor=#f8cecc;strokeColor=#b85450;" vertex="1" parent="1">
          <mxGeometry x="540" y="400" width="120" height="30" as="geometry" />
        </mxCell>
        <mxCell id="NdoguJuQsjqrLEw7FO3E-25" value="Board: ..." style="rounded=0;whiteSpace=wrap;html=1;fillColor=#f8cecc;strokeColor=#b85450;" vertex="1" parent="1">
          <mxGeometry x="540" y="450" width="120" height="30" as="geometry" />
        </mxCell>
        <mxCell id="NdoguJuQsjqrLEw7FO3E-31" value="&lt;span style=&quot;font-style: italic ; color: #00677c&quot;&gt;jsonToCanFrames&lt;/span&gt;" style="edgeStyle=orthogonalEdgeStyle;rounded=0;orthogonalLoop=1;jettySize=auto;html=1;entryX=1;entryY=0.5;entryDx=0;entryDy=0;startArrow=classic;startFill=1;" edge="1" parent="1" source="NdoguJuQsjqrLEw7FO3E-4" target="NdoguJuQsjqrLEw7FO3E-23">
          <mxGeometry relative="1" as="geometry" />
        </mxCell>
        <mxCell id="NdoguJuQsjqrLEw7FO3E-32" value="&lt;span style=&quot;font-style: italic ; color: #00677c&quot;&gt;jsonToCanFrames&lt;/span&gt;" style="edgeStyle=orthogonalEdgeStyle;rounded=0;orthogonalLoop=1;jettySize=auto;html=1;entryX=1;entryY=0.25;entryDx=0;entryDy=0;startArrow=classic;startFill=1;exitX=0.008;exitY=0.65;exitDx=0;exitDy=0;exitPerimeter=0;" edge="1" parent="1" source="NdoguJuQsjqrLEw7FO3E-4" target="NdoguJuQsjqrLEw7FO3E-24">
          <mxGeometry relative="1" as="geometry">
            <mxPoint x="770" y="420" as="sourcePoint" />
            <mxPoint x="650" y="415" as="targetPoint" />
          </mxGeometry>
        </mxCell>
        <mxCell id="NdoguJuQsjqrLEw7FO3E-33" value="&lt;span style=&quot;font-style: italic ; color: #00677c&quot;&gt;jsonToCanFrames&lt;/span&gt;" style="edgeStyle=orthogonalEdgeStyle;rounded=0;orthogonalLoop=1;jettySize=auto;html=1;entryX=1;entryY=0.25;entryDx=0;entryDy=0;startArrow=classic;startFill=1;exitX=0.25;exitY=1;exitDx=0;exitDy=0;" edge="1" parent="1" source="NdoguJuQsjqrLEw7FO3E-4" target="NdoguJuQsjqrLEw7FO3E-25">
          <mxGeometry relative="1" as="geometry">
            <mxPoint x="780" y="462.5" as="sourcePoint" />
            <mxPoint x="650" y="490" as="targetPoint" />
          </mxGeometry>
        </mxCell>
        <mxCell id="NdoguJuQsjqrLEw7FO3E-36" value="Boards" style="text;html=1;strokeColor=none;fillColor=none;align=center;verticalAlign=middle;whiteSpace=wrap;rounded=0;" vertex="1" parent="1">
          <mxGeometry x="497.5" y="330" width="40" height="20" as="geometry" />
        </mxCell>
        <mxCell id="NdoguJuQsjqrLEw7FO3E-39" value="JSON" style="shape=flexArrow;endArrow=classic;html=1;fontSize=20;" edge="1" parent="1">
          <mxGeometry width="50" height="50" relative="1" as="geometry">
            <mxPoint x="116.38" y="300" as="sourcePoint" />
            <mxPoint x="116.38" y="210" as="targetPoint" />
            <Array as="points" />
          </mxGeometry>
        </mxCell>
        <mxCell id="NdoguJuQsjqrLEw7FO3E-40" value="&lt;span style=&quot;font-weight: 600 ; color: #00677c&quot;&gt;error&lt;/span&gt;" style="rounded=0;whiteSpace=wrap;html=1;" vertex="1" parent="1">
          <mxGeometry x="70" y="320" width="93.75" height="40" as="geometry" />
        </mxCell>
        <mxCell id="NdoguJuQsjqrLEw7FO3E-44" value="&lt;i&gt;&lt;span style=&quot;color: rgb(0 , 103 , 124)&quot;&gt;parseFromCAN&lt;/span&gt;&lt;/i&gt;" style="edgeStyle=orthogonalEdgeStyle;rounded=0;orthogonalLoop=1;jettySize=auto;html=1;entryX=0;entryY=0.5;entryDx=0;entryDy=0;startArrow=classic;startFill=1;exitX=0.75;exitY=0;exitDx=0;exitDy=0;" edge="1" parent="1" source="NdoguJuQsjqrLEw7FO3E-41" target="NdoguJuQsjqrLEw7FO3E-23">
          <mxGeometry relative="1" as="geometry" />
        </mxCell>
        <mxCell id="NdoguJuQsjqrLEw7FO3E-45" value="&lt;i&gt;&lt;span style=&quot;color: rgb(0 , 103 , 124)&quot;&gt;parseFromCAN&lt;/span&gt;&lt;/i&gt;" style="edgeStyle=orthogonalEdgeStyle;rounded=0;orthogonalLoop=1;jettySize=auto;html=1;entryX=0;entryY=0.5;entryDx=0;entryDy=0;startArrow=classic;startFill=1;exitX=1;exitY=0;exitDx=0;exitDy=0;" edge="1" parent="1" source="NdoguJuQsjqrLEw7FO3E-41" target="NdoguJuQsjqrLEw7FO3E-24">
          <mxGeometry relative="1" as="geometry" />
        </mxCell>
        <mxCell id="NdoguJuQsjqrLEw7FO3E-46" value="&lt;i&gt;&lt;span style=&quot;color: rgb(0 , 103 , 124)&quot;&gt;parseFromCAN&lt;/span&gt;&lt;/i&gt;" style="edgeStyle=orthogonalEdgeStyle;rounded=0;orthogonalLoop=1;jettySize=auto;html=1;entryX=0;entryY=0.5;entryDx=0;entryDy=0;startArrow=classic;startFill=1;" edge="1" parent="1" source="NdoguJuQsjqrLEw7FO3E-41" target="NdoguJuQsjqrLEw7FO3E-25">
          <mxGeometry relative="1" as="geometry" />
        </mxCell>
        <mxCell id="NdoguJuQsjqrLEw7FO3E-47" value="&lt;span style=&quot;color: #c0c0c0&quot;&gt;&lt;/span&gt;&lt;span style=&quot;color: #800080&quot;&gt;JSON&lt;/span&gt;&lt;span style=&quot;color: #800080&quot;&gt;&lt;/span&gt;" style="edgeStyle=orthogonalEdgeStyle;rounded=0;orthogonalLoop=1;jettySize=auto;html=1;entryX=0.5;entryY=1;entryDx=0;entryDy=0;startArrow=none;startFill=0;endArrow=classic;endFill=1;" edge="1" parent="1" target="NdoguJuQsjqrLEw7FO3E-34">
          <mxGeometry relative="1" as="geometry">
            <mxPoint x="380" y="540" as="sourcePoint" />
          </mxGeometry>
        </mxCell>
        <mxCell id="NdoguJuQsjqrLEw7FO3E-63" style="edgeStyle=orthogonalEdgeStyle;rounded=0;orthogonalLoop=1;jettySize=auto;html=1;startArrow=none;startFill=0;endArrow=classic;endFill=1;exitX=0;exitY=0.5;exitDx=0;exitDy=0;" edge="1" parent="1" source="NdoguJuQsjqrLEw7FO3E-41" target="NdoguJuQsjqrLEw7FO3E-60">
          <mxGeometry relative="1" as="geometry" />
        </mxCell>
        <mxCell id="NdoguJuQsjqrLEw7FO3E-41" value="&lt;b&gt;&lt;span style=&quot;color: rgb(0 , 103 , 124)&quot;&gt;parseFromCAN&lt;/span&gt;&lt;/b&gt;" style="rounded=0;whiteSpace=wrap;html=1;" vertex="1" parent="1">
          <mxGeometry x="352.82" y="530" width="120" height="40" as="geometry" />
        </mxCell>
        <mxCell id="WA45sJLJeDe34Si-K1UF-29" value="string" style="shape=flexArrow;endArrow=classic;html=1;fontSize=20;startArrow=none;startFill=0;" parent="1" edge="1" target="WA45sJLJeDe34Si-K1UF-27">
          <mxGeometry width="50" height="50" relative="1" as="geometry">
            <mxPoint x="1015" y="130" as="sourcePoint" />
            <mxPoint x="1019.5" y="280" as="targetPoint" />
            <Array as="points" />
          </mxGeometry>
        </mxCell>
        <mxCell id="NdoguJuQsjqrLEw7FO3E-53" style="edgeStyle=orthogonalEdgeStyle;rounded=0;orthogonalLoop=1;jettySize=auto;html=1;entryX=1;entryY=0;entryDx=0;entryDy=0;startArrow=none;startFill=0;endArrow=classic;endFill=1;" edge="1" parent="1" source="NdoguJuQsjqrLEw7FO3E-52" target="NdoguJuQsjqrLEw7FO3E-21">
          <mxGeometry relative="1" as="geometry" />
        </mxCell>
        <mxCell id="NdoguJuQsjqrLEw7FO3E-52" value="&lt;div&gt;&lt;b&gt;ScanBoards&lt;/b&gt;&lt;/div&gt;&lt;div&gt;&lt;b&gt;(every second)&lt;br&gt;&lt;/b&gt;&lt;/div&gt;" style="rounded=1;whiteSpace=wrap;html=1;fillColor=#647687;strokeColor=#314354;fontColor=#ffffff;" vertex="1" parent="1">
          <mxGeometry x="900" y="435" width="100" height="60" as="geometry" />
        </mxCell>
        <mxCell id="NdoguJuQsjqrLEw7FO3E-54" value="JSON" style="shape=flexArrow;endArrow=classic;html=1;fontSize=20;" edge="1" parent="1">
          <mxGeometry width="50" height="50" relative="1" as="geometry">
            <mxPoint x="250" y="305" as="sourcePoint" />
            <mxPoint x="295" y="225" as="targetPoint" />
            <Array as="points" />
          </mxGeometry>
        </mxCell>
        <mxCell id="NdoguJuQsjqrLEw7FO3E-55" value="&lt;span style=&quot;font-weight: 600 ; color: #00677c&quot;&gt;channelsInfo&lt;/span&gt;&lt;br&gt;&lt;span style=&quot;font-weight: 600 ; color: #00677c&quot;&gt;&lt;/span&gt;&lt;pre style=&quot;margin-top: 0px ; margin-bottom: 0px ; margin-left: 0px ; margin-right: 0px ; text-indent: 0px&quot;&gt;&lt;span style=&quot;font-weight: 600 ; color: #00677c&quot;&gt;channelStarted&lt;/span&gt;&lt;br&gt;&lt;/pre&gt;" style="rounded=0;whiteSpace=wrap;html=1;" vertex="1" parent="1">
          <mxGeometry x="186.25" y="320" width="123.75" height="40" as="geometry" />
        </mxCell>
        <mxCell id="NdoguJuQsjqrLEw7FO3E-64" style="edgeStyle=orthogonalEdgeStyle;rounded=0;orthogonalLoop=1;jettySize=auto;html=1;entryX=0;entryY=0.712;entryDx=0;entryDy=0;entryPerimeter=0;startArrow=none;startFill=0;endArrow=classic;endFill=1;shape=arrow;" edge="1" parent="1" source="NdoguJuQsjqrLEw7FO3E-60" target="NdoguJuQsjqrLEw7FO3E-35">
          <mxGeometry relative="1" as="geometry" />
        </mxCell>
        <mxCell id="NdoguJuQsjqrLEw7FO3E-60" value="&lt;div&gt;&lt;b&gt;addNewBoard&lt;/b&gt;&lt;/div&gt;" style="rounded=1;whiteSpace=wrap;html=1;fillColor=#647687;strokeColor=#314354;fontColor=#ffffff;" vertex="1" parent="1">
          <mxGeometry x="260" y="449.5" width="100" height="60" as="geometry" />
        </mxCell>
      </root>
    </mxGraphModel>
  </diagram>
</mxfile>
